<!DOCTYPE svg PUBLIC "-//W3C//DTD SVG 1.1//EN" "http://www.w3.org/Graphics/SVG/1.1/DTD/svg11.dtd"> ^M
<!-- Uploaded to: SVG Repo, www.svgrepo.com, Transformed by: SVG Repo Mixer Tools -->
<svg version="1.1" id="Layer_1" xmlns="http://www.w3.org/2000/svg" xmlns:xlink="http://www.w3.org/1999/xlink" viewBox="0 0 512.001 512.001" xml:space="preserve" width="800px" height="800px" fill="#000000"> ^M
  <g id="SVGRepo_bgCarrier" stroke-width="0" /> ^M
  <g id="SVGRepo_tracerCarrier" stroke-linecap="round" stroke-linejoin="round" /> ^M <g id="SVGRepo_iconCarrier">
    <path style="fill:#C0B552;" d="M437.789,32.102c-6.257-13.439-17.373-23.637-31.301-28.715c-13.925-5.079-28.997-4.428-42.437,1.828 c-13.439,6.257-23.637,17.373-28.715,31.301l-63.925,175.32c-1.646,4.516-1.592,9.476,0.154,13.954l19.648,50.404 c2.064,5.296,6.309,9.447,11.649,11.394c2.195,0.8,4.487,1.197,6.773,1.197c3.276,0,6.538-0.815,9.476-2.419l47.48-25.927 c4.218-2.304,7.453-6.065,9.099-10.581l63.925-175.32C444.695,60.612,444.045,45.541,437.789,32.102z" />
    <path style="fill:#CFC859;" d="M406.488,3.387c-13.925-5.079-28.997-4.428-42.437,1.828c-13.439,6.257-23.637,17.373-28.715,31.301 l-63.925,175.32c-1.646,4.516-1.592,9.476,0.154,13.954l19.648,50.404c2.064,5.296,6.309,9.447,11.649,11.394 C305.058,288.39,406.488,3.387,406.488,3.387z" />
    <path style="fill:#8496B7;" d="M462.951,374.913v-32.954c10.92,0,19.772-8.853,19.772-19.772s-8.853-19.772-19.772-19.772H94.864 c-36.165,0-65.586,28.981-65.586,64.604v125.21c0,10.92,8.853,19.772,19.772,19.772h72.499c10.92,0,19.772-8.853,19.772-19.772 v-77.771h321.63c10.92,0,19.772-8.853,19.772-19.772S473.871,374.913,462.951,374.913z" />
    <path style="fill:#98ADD4;" d="M276.707,302.414H94.864c-36.165,0-65.586,28.981-65.586,64.604v125.21 c0,10.92,8.853,19.772,19.772,19.772h72.499c10.92,0,19.772-8.853,19.772-19.772v-77.771h135.387V302.414z" />
    <rect x="191.409" y="293.185" width="205.633" height="121.27" />
    <path style="fill:#6D6459;" d="M397.312,433.883H191.69c-10.92,0-19.772-8.853-19.772-19.772V292.84 c0-10.92,8.853-19.772,19.772-19.772h205.622c10.92,0,19.772,8.853,19.772,19.772v121.27 C417.085,425.03,408.232,433.883,397.312,433.883z" />
    <path style="fill:#897D70;" d="M270.215,433.883H191.69c-10.92,0-19.772-8.853-19.772-19.772V292.84 c0-10.92,8.853-19.772,19.772-19.772h78.525V433.883z" />
    <path style="fill:#6D6459;" d="M462.951,443.457c-10.92,0-19.772-8.853-19.772-19.772V293.187c0-10.92,8.853-19.772,19.772-19.772 s19.772,8.853,19.772,19.772v130.498C482.724,434.605,473.871,443.457,462.951,443.457z" />
  </g> ^M
</svg>